<?xml version="1.0" encoding="utf-8" ?>
<svg xmlns="http://www.w3.org/2000/svg" xmlns:xlink="http://www.w3.org/1999/xlink" width="63.9805" height="20.4004" viewBox="0 0 63.9805 20.4004">
	<path d="M4.83887 24L4.83887 11.4414L0.600586 11.4414L0.600586 9.21973L11.7578 9.21973L11.7578 11.4414L7.5 11.4414L7.5 24L4.83887 24Z" fill-rule="nonzero" transform="matrix(1 0 0 1 -0.600586 -7.97949)" fill="rgb(44, 127, 255)"/>
	<path d="M17.0614 24.2783Q15.5184 24.2783 14.2782 23.5801Q13.0379 22.8818 12.3055 21.583Q11.578 20.2793 11.578 18.458Q11.578 17.1006 12.0076 16.0312Q12.4422 14.9619 13.1698 14.1904Q13.9022 13.4189 14.8104 13.0186Q15.7186 12.6182 16.7 12.6182Q18.1991 12.6182 19.2196 13.292Q20.2401 13.9609 20.7576 15.1523Q21.2801 16.3389 21.2801 17.9014Q21.2801 18.2822 21.2508 18.6143Q21.2215 18.9414 21.158 19.1611L14.1414 19.1611Q14.2391 20.1377 14.6785 20.8213Q15.118 21.5 15.8065 21.8711Q16.4998 22.2422 17.3983 22.2422Q18.1014 22.2422 18.7215 22.0322Q19.3416 21.8223 19.9617 21.4414L20.8602 23.082Q20.0789 23.5996 19.0975 23.9414Q18.1209 24.2783 17.0614 24.2783ZM14.1024 17.3789L19.0389 17.3789Q19.0389 16.1191 18.4578 15.3916Q17.8817 14.6592 16.7391 14.6592Q16.119 14.6592 15.5574 14.9717Q15.0008 15.2793 14.6102 15.8799Q14.2196 16.4805 14.1024 17.3789Z" fill-rule="nonzero" transform="matrix(1 0 0 1 -0.600586 -7.97949)" fill="rgb(44, 127, 255)"/>
	<path d="M23.7801 24L23.7801 12.9014L25.9188 12.9014L26.1385 14.4199L26.1776 14.4199Q26.9003 13.6777 27.7206 13.1504Q28.5409 12.6182 29.6004 12.6182Q30.8212 12.6182 31.5487 13.1406Q32.2811 13.6582 32.662 14.6006Q33.4579 13.7607 34.3172 13.1895Q35.1815 12.6182 36.2411 12.6182Q37.9794 12.6182 38.8094 13.7803Q39.6395 14.9424 39.6395 17.042L39.6395 24L37.0419 24L37.0419 17.3789Q37.0419 16.002 36.6317 15.4404Q36.2215 14.8789 35.3378 14.8789Q34.8202 14.8789 34.2489 15.2207Q33.6776 15.5576 33.0184 16.2412L33.0184 24L30.4012 24L30.4012 17.3789Q30.4012 16.002 29.9911 15.4404Q29.5809 14.8789 28.702 14.8789Q28.1991 14.8789 27.618 15.2207Q27.0419 15.5576 26.4022 16.2412L26.4022 24L23.7801 24Z" fill-rule="nonzero" transform="matrix(1 0 0 1 -0.600586 -7.97949)" fill="rgb(44, 127, 255)"/>
	<path d="M42.8401 28.3799L42.8401 12.9014L44.9788 12.9014L45.1985 14.0781L45.2376 14.0781Q45.9602 13.4824 46.8196 13.0527Q47.679 12.6182 48.5823 12.6182Q49.9788 12.6182 50.9602 13.3311Q51.9417 14.0391 52.4495 15.2988Q52.9622 16.5586 52.9622 18.2822Q52.9622 20.1816 52.2786 21.5244Q51.5999 22.8623 50.5208 23.5703Q49.4417 24.2783 48.221 24.2783Q47.4788 24.2783 46.7561 23.9512Q46.0384 23.6191 45.3792 23.0381L45.4622 24.8984L45.4622 28.3799L42.8401 28.3799ZM47.6595 22.1006Q48.4016 22.1006 48.9876 21.6709Q49.5784 21.2412 49.9202 20.4014Q50.262 19.5615 50.262 18.3213Q50.262 17.1982 50.0081 16.4121Q49.7591 15.6211 49.2366 15.2012Q48.719 14.7812 47.8596 14.7812Q47.2591 14.7812 46.678 15.0938Q46.1018 15.4014 45.4622 16.0215L45.4622 21.1777Q46.0579 21.7002 46.6292 21.9004Q47.2005 22.1006 47.6595 22.1006Z" fill-rule="nonzero" transform="matrix(1 0 0 1 -0.600586 -7.97949)" fill="rgb(44, 127, 255)"/>
	<path d="M58.0996 24.2783Q57.1817 24.2783 56.6201 23.8926Q56.0586 23.502 55.8194 22.7939Q55.5801 22.0811 55.5801 21.1387L55.5801 8.05762L58.2022 8.05762L58.2022 21.2607Q58.2022 21.7393 58.378 21.9297Q58.5586 22.1201 58.7588 22.1201Q58.8418 22.1201 58.92 22.1104Q58.9981 22.1006 59.1592 22.0811L59.4815 24.0391Q59.2422 24.1416 58.9102 24.21Q58.5782 24.2783 58.0996 24.2783Z" fill-rule="nonzero" transform="matrix(1 0 0 1 -0.600586 -7.97949)" fill="rgb(44, 127, 255)"/>
	<path d="M61.7001 24L61.7001 12.9014L64.3222 12.9014L64.3222 24L61.7001 24ZM63.0185 10.958Q62.3007 10.958 61.8808 10.5479Q61.4608 10.1377 61.4608 9.45898Q61.4608 8.7998 61.8808 8.38965Q62.3007 7.97949 63.0185 7.97949Q63.7021 7.97949 64.1415 8.38965Q64.581 8.7998 64.581 9.45898Q64.581 10.1377 64.1415 10.5479Q63.7021 10.958 63.0185 10.958Z" fill-rule="nonzero" transform="matrix(1 0 0 1 -0.600586 -7.97949)" fill="rgb(44, 127, 255)"/>
</svg>
