<?xml version="1.0" encoding="utf-8" ?>
<svg xmlns="http://www.w3.org/2000/svg" xmlns:xlink="http://www.w3.org/1999/xlink" width="166.4062" height="32" viewBox="0 0 166.4062 32">
	<path d="M5.61328 34L5.61328 19.4336L0.697266 19.4336L0.697266 16.1699L14.4727 16.1699L14.4727 19.4336L9.55078 19.4336L9.55078 34L5.61328 34Z" fill-rule="nonzero" transform="matrix(1 0 0 1 0 -8)" fill="rgb(37, 99, 235)"/>
	<path d="M20.8297 34.334Q18.8902 34.334 17.3492 33.4844Q15.814 32.6348 14.9 31.0527Q13.9918 29.4648 13.9918 27.2324Q13.9918 25.5742 14.5191 24.2676Q15.0465 22.9609 15.9605 22.0234Q16.8746 21.0859 18.0113 20.6113Q19.1539 20.1309 20.3492 20.1309Q22.2711 20.1309 23.5426 20.9688Q24.814 21.8066 25.4469 23.2715Q26.0855 24.7363 26.0855 26.6055Q26.0855 27.1621 26.0387 27.6309Q25.9918 28.0938 25.9215 28.3574L17.7594 28.3574Q17.9293 29.3652 18.4332 30.0273Q18.9371 30.6895 19.6695 31.0117Q20.4019 31.334 21.3336 31.334Q22.1304 31.334 22.8336 31.1113Q23.5426 30.8828 24.2867 30.4492L25.5816 32.8223Q24.5738 33.5195 23.314 33.9297Q22.0543 34.334 20.8297 34.334ZM17.7125 25.7676L22.775 25.7676Q22.775 24.5898 22.2242 23.8457Q21.6734 23.1016 20.4254 23.1016Q19.7984 23.1016 19.2242 23.4062Q18.65 23.7051 18.2515 24.2793Q17.8531 24.8535 17.7125 25.7676Z" fill-rule="nonzero" transform="matrix(1 0 0 1 0 -8)" fill="rgb(37, 99, 235)"/>
	<path d="M28.9182 34L28.9182 20.4648L32.0881 20.4648L32.3752 22.2168L32.4455 22.2168Q33.2893 21.3496 34.2619 20.7402Q35.2346 20.1309 36.5764 20.1309Q38.0178 20.1309 38.9026 20.7168Q39.7932 21.3027 40.2971 22.4102Q41.2053 21.4727 42.2248 20.8047Q43.2502 20.1309 44.592 20.1309Q46.7776 20.1309 47.7854 21.584Q48.7932 23.0312 48.7932 25.5742L48.7932 34L44.9026 34L44.9026 26.0781Q44.9026 24.5664 44.4924 24.0156Q44.0881 23.4648 43.174 23.4648Q42.6701 23.4648 42.0666 23.8047Q41.469 24.1387 40.801 24.8066L40.801 34L36.9104 34L36.9104 26.0781Q36.9104 24.5664 36.4885 24.0156Q36.0725 23.4648 35.1584 23.4648Q34.6545 23.4648 34.051 23.8047Q33.4533 24.1387 32.8088 24.8066L32.8088 34L28.9182 34Z" fill-rule="nonzero" transform="matrix(1 0 0 1 0 -8)" fill="rgb(37, 99, 235)"/>
	<path d="M52.2941 39.0625L52.2941 20.4648L55.464 20.4648L55.7511 21.8066L55.8215 21.8066Q56.6652 21.0859 57.6613 20.6113Q58.6574 20.1309 59.7121 20.1309Q61.3703 20.1309 62.5539 20.9805Q63.7433 21.8301 64.3761 23.3711Q65.0148 24.9062 65.0148 27.0156Q65.0148 29.3418 64.2004 30.9766Q63.3859 32.6055 62.0734 33.4727Q60.7668 34.334 59.3019 34.334Q58.4406 34.334 57.6086 33.9531Q56.7824 33.5664 56.0617 32.8984L56.1847 35.0547L56.1847 39.0625L52.2941 39.0625ZM58.4172 31.1172Q59.1379 31.1172 59.7355 30.7012Q60.3332 30.2793 60.6672 29.3828Q61.007 28.4805 61.007 27.0625Q61.007 25.8145 60.7551 24.9883Q60.5031 24.1621 59.9758 23.7285Q59.4484 23.2949 58.5812 23.2949Q57.9367 23.2949 57.3683 23.6113Q56.8058 23.9219 56.1847 24.5664L56.1847 30.2324Q56.759 30.7363 57.3332 30.9297Q57.9133 31.1172 58.4172 31.1172Z" fill-rule="nonzero" transform="matrix(1 0 0 1 0 -8)" fill="rgb(37, 99, 235)"/>
	<path d="M71.5216 34.334Q70.1739 34.334 69.3829 33.7832Q68.5919 33.2324 68.252 32.2246Q67.9181 31.2168 67.9181 29.8984L67.9181 14.8457L71.8087 14.8457L71.8087 30.0391Q71.8087 30.6895 72.0489 30.9297Q72.2892 31.1699 72.5294 31.1699Q72.6466 31.1699 72.7403 31.1582Q72.8399 31.1465 73.0099 31.1172L73.461 34Q73.1505 34.1465 72.67 34.2402Q72.1895 34.334 71.5216 34.334Z" fill-rule="nonzero" transform="matrix(1 0 0 1 0 -8)" fill="rgb(37, 99, 235)"/>
	<path d="M79.0333 34.334Q77.8087 34.334 76.9064 33.7949Q76.0099 33.2559 75.5177 32.3359Q75.0255 31.4102 75.0255 30.2559Q75.0255 28.0938 76.8478 26.9102Q78.67 25.7207 82.6779 25.2637Q82.6544 24.666 82.4259 24.209Q82.1974 23.752 81.7286 23.5Q81.2657 23.248 80.5216 23.248Q79.631 23.248 78.7404 23.5879Q77.8556 23.9219 76.8712 24.4727L75.506 21.9062Q76.3673 21.3789 77.2755 20.9805Q78.1896 20.582 79.1857 20.3594Q80.1818 20.1309 81.2423 20.1309Q82.9943 20.1309 84.1661 20.8047Q85.3439 21.4727 85.965 22.8203Q86.5919 24.1621 86.5919 26.2012L86.5919 34L83.3986 34L83.1349 32.6055L83.0177 32.6055Q82.174 33.3496 81.1779 33.8418Q80.1818 34.334 79.0333 34.334ZM80.3517 31.2871Q81.049 31.2871 81.5997 30.9766Q82.1505 30.666 82.6779 30.1094L82.6779 27.666Q81.213 27.8301 80.3341 28.1699Q79.4611 28.5039 79.1036 28.9609Q78.7462 29.418 78.7462 29.9688Q78.7462 30.666 79.1857 30.9766Q79.631 31.2871 80.3517 31.2871Z" fill-rule="nonzero" transform="matrix(1 0 0 1 0 -8)" fill="rgb(37, 99, 235)"/>
	<path d="M94.5127 34.334Q92.8545 34.334 91.8349 33.6777Q90.8154 33.0156 90.3467 31.8438Q89.8779 30.666 89.8779 29.1309L89.8779 23.5117L88.0322 23.5117L88.0322 20.6055L90.1181 20.4648L90.5517 16.8145L93.792 16.8145L93.792 20.4648L97.0556 20.4648L97.0556 23.5117L93.792 23.5117L93.792 29.1016Q93.792 30.2324 94.2724 30.7598Q94.7529 31.2871 95.5674 31.2871Q95.9014 31.2871 96.2471 31.1934Q96.5986 31.0938 96.8623 31L97.4892 33.8301Q96.9619 34 96.2295 34.1641Q95.4971 34.334 94.5127 34.334Z" fill-rule="nonzero" transform="matrix(1 0 0 1 0 -8)" fill="rgb(37, 99, 235)"/>
	<path d="M105.141 34.334Q103.202 34.334 101.661 33.4844Q100.126 32.6348 99.2117 31.0527Q98.3035 29.4648 98.3035 27.2324Q98.3035 25.5742 98.8309 24.2676Q99.3582 22.9609 100.272 22.0234Q101.186 21.0859 102.323 20.6113Q103.466 20.1309 104.661 20.1309Q106.583 20.1309 107.854 20.9688Q109.126 21.8066 109.759 23.2715Q110.397 24.7363 110.397 26.6055Q110.397 27.1621 110.35 27.6309Q110.304 28.0938 110.233 28.3574L102.071 28.3574Q102.241 29.3652 102.745 30.0273Q103.249 30.6895 103.981 31.0117Q104.714 31.334 105.645 31.334Q106.442 31.334 107.145 31.1113Q107.854 30.8828 108.598 30.4492L109.893 32.8223Q108.886 33.5195 107.626 33.9297Q106.366 34.334 105.141 34.334ZM102.024 25.7676L107.087 25.7676Q107.087 24.5898 106.536 23.8457Q105.985 23.1016 104.737 23.1016Q104.11 23.1016 103.536 23.4062Q102.962 23.7051 102.563 24.2793Q102.165 24.8535 102.024 25.7676Z" fill-rule="nonzero" transform="matrix(1 0 0 1 0 -8)" fill="rgb(37, 99, 235)"/>
	<path d="M119.018 34L119.018 16.1699L122.927 16.1699L122.927 23.0781L129.237 23.0781L129.237 16.1699L133.128 16.1699L133.128 34L129.237 34L129.237 26.4883L122.927 26.4883L122.927 34L119.018 34Z" fill-rule="nonzero" transform="matrix(1 0 0 1 0 -8)" fill="rgb(37, 99, 235)"/>
	<path d="M141.146 34.334Q138.937 34.334 137.93 32.875Q136.922 31.4102 136.922 28.8613L136.922 20.4648L140.83 20.4648L140.83 28.3867Q140.83 29.8457 141.252 30.4258Q141.674 31 142.559 31Q143.326 31 143.9 30.6426Q144.48 30.2793 145.078 29.4648L145.078 20.4648L148.969 20.4648L148.969 34L145.775 34L145.488 32.1016L145.418 32.1016Q144.551 33.1094 143.543 33.7246Q142.535 34.334 141.146 34.334Z" fill-rule="nonzero" transform="matrix(1 0 0 1 0 -8)" fill="rgb(37, 99, 235)"/>
	<path d="M159.598 34.334Q158.713 34.334 157.787 33.8828Q156.861 33.4258 156.047 32.5586L155.953 32.5586L155.637 34L152.59 34L152.59 14.8457L156.48 14.8457L156.48 19.5508L156.357 21.6426Q157.154 20.9453 158.086 20.541Q159.023 20.1309 160.008 20.1309Q161.637 20.1309 162.826 20.9688Q164.016 21.8066 164.66 23.3594Q165.311 24.9062 165.311 26.9922Q165.311 29.3184 164.496 30.9648Q163.682 32.6055 162.369 33.4727Q161.062 34.334 159.598 34.334ZM158.713 31.1172Q159.434 31.1172 160.031 30.7012Q160.629 30.2793 160.963 29.3828Q161.303 28.4805 161.303 27.0625Q161.303 25.8145 161.051 24.9883Q160.799 24.1621 160.271 23.7285Q159.744 23.2949 158.877 23.2949Q158.232 23.2949 157.664 23.6113Q157.102 23.9219 156.48 24.5664L156.48 30.2324Q157.031 30.7363 157.617 30.9297Q158.209 31.1172 158.713 31.1172Z" fill-rule="nonzero" transform="matrix(1 0 0 1 0 -8)" fill="rgb(37, 99, 235)"/>
</svg>
